<?xml version="1.0" encoding="UTF-8"?>
<svg width="98px" height="26px" viewBox="0 0 98 26" version="1.1" xmlns="http://www.w3.org/2000/svg" xmlns:xlink="http://www.w3.org/1999/xlink">
    <title>外网语雀</title>
    <defs>
        <linearGradient x1="82.745802%" y1="0.0364365082%" x2="20.2771185%" y2="79.3849246%" id="linearGradient-1">
            <stop stop-color="#7BD26A" offset="0%"></stop>
            <stop stop-color="#07B26A" offset="100%"></stop>
        </linearGradient>
        <rect id="path-2" x="0" y="0" width="26.0094787" height="26" rx="6.24"></rect>
        <radialGradient cx="60.2119822%" cy="64.1956281%" fx="60.2119822%" fy="64.1956281%" r="51.0053278%" gradientTransform="translate(0.602120,0.641956),scale(0.852171,1.000000),rotate(-68.407630),translate(-0.602120,-0.641956)" id="radialGradient-4">
            <stop stop-color="#57CB86" offset="0%"></stop>
            <stop stop-color="#FFFFFF" stop-opacity="0.8" offset="100%"></stop>
        </radialGradient>
        <path d="M9.85844087,0 L9.9312233,0 L9.99553048,0 L9.99553048,0 L10.0610901,0.000331576155 L10.0610901,0.000331576155 L10.127886,0.000681979331 L10.127886,0.000681979331 L10.1959096,0.00116250403 L10.1959096,0.00116250403 L10.26515,0.00177843386 L10.26515,0.00177843386 L10.3355968,0.0025350524 L10.3355968,0.0025350524 L10.4072393,0.00343764326 L10.4072393,0.00343764326 L10.4556599,0.00412307541 L10.4556599,0.00412307541 L10.5046042,0.00487729792 L10.5046042,0.00487729792 L10.5789953,0.00614103816 L10.5789953,0.00614103816 L10.6545468,0.0075683627 L10.6545468,0.0075683627 L10.731248,0.00916455514 L10.731248,0.00916455514 L10.7830155,0.0103251081 L10.7830155,0.0103251081 L10.8616092,0.0122144884 L10.8616092,0.0122144884 L10.9413243,0.0142868261 L10.9413243,0.0142868261 L11.0221501,0.0165474049 L11.0221501,0.0165474049 L11.0766458,0.018161645 L11.0766458,0.018161645 L11.1592993,0.0207477003 L11.1592993,0.0207477003 L11.2430353,0.0235360862 L11.2430353,0.0235360862 L11.2994553,0.0255100253 L11.2994553,0.0255100253 L11.3563486,0.0275778029 L11.3563486,0.0275778029 L11.413712,0.0297409845 L11.413712,0.0297409845 L11.4715422,0.0320011357 L11.4715422,0.0320011357 L11.5298363,0.0343598219 L11.5298363,0.0343598219 L11.588591,0.0368186086 L11.588591,0.0368186086 L11.6775798,0.0406979018 L11.6775798,0.0406979018 L11.7374723,0.0434137891 L11.7374723,0.0434137891 L11.8281532,0.0476860714 L11.8281532,0.0476860714 L11.8891638,0.0506688435 L11.8891638,0.0506688435 L11.9506163,0.0537611093 L11.9506163,0.0537611093 L12.0436163,0.0586082331 L12.0436163,0.0586082331 L12.1061594,0.061981082 L12.1061594,0.061981082 L12.1691332,0.0654689039 L12.1691332,0.0654689039 L12.2325346,0.0690732641 L12.2325346,0.0690732641 L12.2963604,0.0727957283 L12.2963604,0.0727957283 L12.3606076,0.0766378619 L12.3606076,0.0766378619 L12.4252729,0.0806012304 L12.4252729,0.0806012304 L12.4903532,0.0846873994 L12.4903532,0.0846873994 L12.5558454,0.0888979343 L12.5558454,0.0888979343 L12.6217464,0.0932344007 L12.6217464,0.0932344007 L12.6880528,0.0976983641 L12.6880528,0.0976983641 C15.0688559,0.259796072 15.6993879,1.96792848 15.7664808,2.17232082 L15.7700096,2.18329556 L15.7700096,2.18329556 L15.7727503,2.19228685 L15.7727503,2.19228685 L16.8062949,2.24835336 L16.8062949,2.24835336 C16.8614495,2.24835336 16.9061611,2.29289806 16.9061611,2.34784674 C16.9061611,2.38723092 16.8831917,2.42127034 16.8498709,2.43739409 C15.7889724,3.0093152 15.4648644,4.1714334 15.6554104,4.92842573 C15.7168213,5.17239652 15.8122342,5.38211813 15.9184548,5.60378714 L15.9855673,5.74331821 C16.2314462,6.25567571 16.5075123,6.87607121 16.5525933,8.1246874 C16.6535066,10.9196977 14.1874424,13.4317662 11.2694366,13.4317662 L11.237506,13.4317788 L11.237506,13.4317788 L11.1693533,13.4318803 L11.1693533,13.4318803 L11.0563958,13.4322227 L11.0563958,13.4322227 L10.9739384,13.4325778 L10.9739384,13.4325778 L10.8395238,13.4333006 L10.8395238,13.4333006 L10.7427617,13.4339094 L10.7427617,13.4339094 L10.6402777,13.4346195 L10.6402777,13.4346195 L10.4758231,13.435875 L10.4758231,13.435875 L10.2984943,13.4373588 L10.2984943,13.4373588 L10.1082912,13.4390708 L10.1082912,13.4390708 L9.83466043,13.4417086 L9.83466043,13.4417086 L9.61441739,13.4439533 L9.61441739,13.4439533 L9.21873617,13.4482017 L9.21873617,13.4482017 L8.7872931,13.4530841 L8.7872931,13.4530841 L8.3200882,13.4586007 L8.3200882,13.4586007 L8.02259957,13.4622149 L8.02259957,13.4622149 L7.60592143,13.4673891 L7.60592143,13.4673891 L7.05288809,13.4744274 L7.05288809,13.4744274 L6.46409291,13.4820999 L6.46409291,13.4820999 L5.96730824,13.4886944 L5.96730824,13.4886944 L5.17921702,13.499347 L5.17921702,13.499347 L4.6252134,13.506956 L4.6252134,13.506956 L3.60063383,13.5212483 L3.60063383,13.5212483 L2.50596103,13.5367834 L2.50596103,13.5367834 L1.51188159,13.5510884 L1.51188159,13.5510884 L0.995530476,13.5585833 L7.23561653,6.48906312 L7.29216481,6.42484653 L7.29216481,6.42484653 L7.34855968,6.36094751 L7.34855968,6.36094751 L7.40478833,6.29734935 L7.40478833,6.29734935 L7.68298947,5.98328638 L7.68298947,5.98328638 L7.73795156,5.92114234 L7.73795156,5.92114234 L7.79265768,5.85918213 L7.79265768,5.85918213 L7.84709504,5.79738905 C7.85614482,5.7871032 7.86518287,5.77682362 7.87420892,5.76654996 L7.92821907,5.70497623 C7.93719605,5.69472485 7.9461605,5.68447869 7.95511214,5.67423741 L8.00866625,5.6128454 L8.00866625,5.6128454 L8.06190032,5.55155366 C8.68104762,4.83700317 9.23223448,4.13950919 9.62386318,3.33961638 C10.0585826,2.11638587 9.61603759,1.20361183 9.16429212,0.650548948 C9.12941297,0.607847103 9.09447897,0.567289621 9.05988967,0.528899171 C8.90589196,0.332507516 9.01074479,0.00530922209 9.30400548,0.00530922209 C9.32790115,0.00530922209 9.35228234,0.00494128632 9.37714676,0.00446664733 L9.43390619,0.00332885546 C9.44670018,0.00308498022 9.45961454,0.00286341029 9.472649,0.00269679974 L9.52679543,0.00205054544 L9.52679543,0.00205054544 L9.58227212,0.00148243835 L9.58227212,0.00148243835 L9.61999038,0.00114971997 L9.61999038,0.00114971997 L9.71683142,0.000490388031 L9.71683142,0.000490388031 L9.79689645,0.000153206697 L9.79689645,0.000153206697 L9.85844087,0 L9.85844087,0 Z" id="path-5"></path>
    </defs>
    <g id="外网语雀" stroke="none" stroke-width="1" fill="none" fill-rule="evenodd">
        <g id="5.品牌LOGO/基础徽标/阿里版备份" transform="translate(0.000000, -0.000000)">
            <g id="编组-2" transform="translate(33.755685, 6.345238)" fill="#262626">
                <g id="语">
                    <path d="M2.62689945,4.03398108 C3.02512803,4.03398108 3.34795609,4.35680913 3.34795609,4.75503772 L3.34795609,11.3071554 C3.34795609,11.5288929 3.43948844,11.6628995 3.55773046,11.7397082 L3.5676444,11.7459772 C3.58426605,11.756207 3.60136819,11.7653498 3.61877717,11.7734874 L3.62925798,11.77825 L3.6345234,11.7805421 L3.64497855,11.7849014 L3.65548539,11.7890345 L3.66603588,11.7929451 C3.6713207,11.7948454 3.67661885,11.7966637 3.68192582,11.7984022 L3.69514081,11.8025626 C3.71718746,11.8092263 3.73932102,11.814548 3.76121873,11.8186799 L3.77432647,11.8210175 L3.78736211,11.8230768 L3.80031017,11.8248651 C3.80460987,11.8254169 3.80889238,11.8259247 3.81315514,11.8263898 L3.82588154,11.827658 L3.8397114,11.8287647 C3.85345346,11.8297243 3.86692184,11.8302472 3.88002402,11.830377 L3.88654417,11.8304094 C3.93592,11.8304094 3.98789798,11.8294314 4.04247809,11.8274756 L4.07925033,11.8260268 C4.0978292,11.82523 4.1166972,11.8243245 4.13585432,11.8233103 L4.17455408,11.8211372 L4.19419308,11.8199419 L4.23404934,11.8173341 L4.25426659,11.8159215 L4.29527936,11.8128791 L4.33706313,11.8095469 C4.35690731,11.8079104 4.37432066,11.8226709 4.37595692,11.8425151 C4.3762515,11.8460876 4.37601163,11.8496841 4.37524522,11.8531859 L4.17258659,12.8692899 C4.12912224,13.0678837 3.95325075,13.2094268 3.74995619,13.2094268 L3.05535408,13.2094268 C2.4996953,13.2094268 1.74360507,12.7383494 1.74360507,11.3985132 L1.74360507,5.38596227 C1.74360507,5.28640513 1.66289806,5.20569811 1.56334092,5.20569811 L0.427676716,5.20569811 C0.298252427,5.20569811 0.19333331,5.100779 0.19333331,4.97135471 L0.19333331,4.26832449 C0.19333331,4.1389002 0.298252427,4.03398108 0.427676716,4.03398108 L2.62689945,4.03398108 Z M12.1748159,8.35820055 C12.6526902,8.35820055 13.0400839,8.74559422 13.0400839,9.22346852 L13.0400839,9.30669648 L13.0433185,9.30670772 L13.0433185,12.4613305 L13.0400839,12.4613193 L13.0400839,12.5785022 C13.0400839,12.9767308 12.7172559,13.2995588 12.3190273,13.2995588 L6.15399305,13.2995588 C5.75576446,13.2995588 5.43293641,12.9767308 5.43293641,12.5785022 L5.43293641,11.8934984 L5.43616314,11.8934872 L5.43616314,9.78228741 L5.43293641,9.78228741 L5.43293641,9.22346852 C5.43293641,8.74559422 5.82033007,8.35820055 6.29820437,8.35820055 L12.1748159,8.35820055 Z M11.1144841,9.52991758 L7.36498964,9.52991758 C7.17583106,9.52991758 7.02248774,9.68326091 7.02248774,9.87241949 L7.02248774,11.7853287 C7.02248774,11.9744872 7.17583106,12.1278306 7.36498964,12.1278306 L11.1144841,12.1278306 C11.3036427,12.1278306 11.456986,11.9744872 11.456986,11.7853287 L11.456986,9.87241949 C11.456986,9.68326091 11.3036427,9.52991758 11.1144841,9.52991758 Z M13.3278033,0.181567827 C13.4273604,0.181567827 13.5080674,0.26227484 13.5080674,0.361831986 L13.5101529,0.608173002 C13.5134568,1.00638766 13.1933392,1.33190362 12.7951246,1.33523324 L12.7890958,1.33525844 L8.82982492,1.33525844 C8.74234397,1.33525844 8.66749045,1.39806791 8.65229943,1.48421981 L8.4344242,2.7198415 C8.41713615,2.81788612 8.48260229,2.91138173 8.58064691,2.92866979 C8.59098129,2.93049203 8.60145505,2.9314084 8.61194885,2.93140845 L11.673294,2.9314205 C12.2507246,2.9314205 12.7188238,3.39952439 12.7188261,3.97695493 L12.7188261,6.20237828 C12.7188294,6.30193415 12.7995344,6.38264064 12.8990903,6.38264569 L13.6964708,6.38265488 C13.7960279,6.38265488 13.8767349,6.4633619 13.8767349,6.56291904 L13.8767349,6.83331528 C13.8767349,7.23154386 13.5539069,7.55437192 13.1556783,7.55437192 L4.77339492,7.55437192 C4.67383778,7.55437192 4.59313076,7.4736649 4.59313076,7.37410776 L4.59313076,6.56291904 C4.59313076,6.4633619 4.67383778,6.38265488 4.77339492,6.38265488 L5.98990945,6.38263812 C6.07738971,6.38263739 6.15224231,6.31982827 6.16743338,6.23367708 L6.51852287,4.24258773 C6.53581111,4.14454314 6.47034515,4.05104741 6.37230056,4.03375917 C6.36196534,4.03193676 6.35149071,4.03102037 6.34099605,4.03102045 L5.16577475,4.03103418 C5.06621761,4.03103418 4.98551059,3.95032717 4.98551059,3.85077002 L4.98551059,3.11168697 C4.98551059,3.01212983 5.06621761,2.9314205 5.16577475,2.9314205 L6.59844454,2.93140833 C6.68592509,2.93140781 6.760778,2.86859847 6.77596896,2.78244697 L6.99384416,1.54682539 C7.01113222,1.44878077 6.94566608,1.35528516 6.84762146,1.3379971 C6.8372868,1.33617481 6.82681275,1.33525844 6.81631867,1.33525844 L5.12578406,1.33525844 C5.02622692,1.33525844 4.94551991,1.25455143 4.94551991,1.15499428 L4.94551991,0.361831986 C4.94551991,0.26227484 5.02622692,0.181567827 5.12578406,0.181567827 L13.3278033,0.181567827 Z M10.7719901,4.0310188 L8.35448614,4.0310188 C8.26700528,4.0310188 8.19215182,4.09382813 8.17696069,4.17997991 L7.82587098,6.17107523 C7.80858278,6.26911983 7.87404878,6.36261553 7.97209338,6.37990373 C7.98242812,6.38172605 7.99290225,6.38264244 8.00339643,6.38264244 L10.9342278,6.38264244 C11.033785,6.38264244 11.114492,6.30193542 11.114492,6.20237828 L11.114492,4.37353608 C11.114492,4.1843775 10.9611487,4.0310188 10.7719901,4.0310188 Z M2.43795366,0.151641658 L2.44013129,0.156601125 C2.59178803,0.500633032 2.77674777,0.806872135 2.99501051,1.07531843 C3.21327325,1.34376473 3.45826176,1.59715232 3.72997602,1.83548121 C3.814997,1.91437152 3.82266909,2.04627734 3.74736756,2.13449257 L3.10272676,2.88968485 C2.99930811,3.01083906 2.83415933,3.01083906 2.69610163,2.92179797 C2.41984296,2.71615473 2.1287577,2.41924943 1.82284586,2.03108208 L1.7931952,1.9932326 L1.77833516,1.97409418 C1.75992269,1.95031082 1.74184398,1.92666638 1.72409903,1.90316084 L1.69773194,1.86800673 C1.67077269,1.83182616 1.64461364,1.79597863 1.61925479,1.76046415 L1.59416267,1.72506068 C1.37073421,1.40742863 1.21212192,1.11677329 1.11832578,0.85309466 C1.08100545,0.732010613 1.09434715,0.617303055 1.19788758,0.557703393 C1.2010994,0.555854615 1.2043582,0.554088679 1.20766074,0.552407334 L2.15390038,0.0706716066 C2.25533242,0.0190320043 2.39081095,0.0486566281 2.43795366,0.151641658 Z" id="形状"></path>
                </g>
                <g id="雀备份" transform="translate(15.142189, 0.000000)">
                    <path d="M7.68375767,0 C7.78331481,0 7.86402183,0.0807070129 7.86402183,0.180264159 L7.86403025,2.93033072 C7.86563599,2.99004343 7.91531498,3.03717946 7.97502867,3.03561101 C7.99223051,3.03515918 8.00907627,3.03060953 8.02302394,3.02025459 C8.03422729,3.01425031 8.04441256,3.00876722 8.05357975,3.00380533 C8.6337503,2.68977885 9.36674176,2.33746592 9.89226102,1.94676624 C9.91754579,1.92796816 9.95197313,1.90206771 9.99554304,1.86906488 L9.99533871,1.86880569 C10.018794,1.85031526 10.0228188,1.81631154 10.0043284,1.79285626 C10.0019579,1.78984933 9.99927487,1.78710265 9.99632429,1.78466243 C9.96668147,1.76310236 9.9486312,1.74715694 9.94039455,1.73897715 C9.85699814,1.65615645 9.78175662,1.55208432 9.73287014,1.47072297 L9.72694141,1.46068199 L9.72115444,1.45051423 L9.71553133,1.44023392 L9.71278813,1.435056 L9.70745223,1.42463352 L9.70496165,1.41959062 L9.70014249,1.40945769 L9.69555571,1.39927246 L9.69335562,1.39416419 L9.68915432,1.38392428 C9.68776894,1.38042917 9.68643264,1.37693046 9.68514895,1.37343042 L9.68145917,1.36292856 C9.65795939,1.29291957 9.65690252,1.22328046 9.70636189,1.17208447 C9.70836304,1.17001305 9.7104095,1.1679859 9.71249938,1.16600404 L10.3315745,0.599073383 C10.4072734,0.527316607 10.5250978,0.52598204 10.6023645,0.595107365 L10.6065383,0.598947715 C11.2110866,1.17096457 12.4445643,1.97444992 13.2538512,2.18847457 L13.2783313,2.19486559 C13.3723364,2.21908704 13.4307447,2.31287094 13.4110215,2.40792162 L13.232562,3.26797591 C13.2062669,3.39470083 13.0822196,3.47611525 12.9554946,3.44982009 C12.9550677,3.44973149 12.8386062,3.42131019 12.4382269,3.26292017 C12.1713074,3.15732683 11.8357918,2.97216671 11.4316801,2.70743982 L11.376005,2.68096307 C11.3446261,2.66604058 11.3074638,2.67048409 11.2804877,2.6923841 C11.2718095,2.69942932 11.2631314,2.70647454 11.2544532,2.71351976 C10.0329313,3.69877525 8.50027003,4.45632488 6.99484114,5.04631993 L6.95132827,5.06327509 L6.9067635,5.08045054 L6.86122854,5.09782044 L6.8148051,5.11535895 L6.76757489,5.13304023 L6.71961961,5.15083844 L6.67102099,5.16872774 L6.62186073,5.18668228 L6.54724601,5.2136799 L6.49703914,5.2316845 L6.44655662,5.2496639 L6.39588016,5.26759226 L6.33986011,5.28727599 L6.3024917,5.3003294 L6.24779642,5.31932722 L6.14413542,5.35498744 L6.07567074,5.37829504 L5.99118008,5.40678929 L5.90828158,5.43445172 L5.84338333,5.45589604 L5.76437893,5.48173601 L5.70312476,5.50155512 L5.62933648,5.52515454 L5.58670254,5.53863825 L5.51866062,5.55989508 L5.49257514,5.56794812 L5.45474061,5.57952005 L5.40684657,5.59395836 L5.01202908,5.71163684 C4.99294722,5.71732434 4.98208895,5.73740387 4.98777645,5.75648573 C4.99233769,5.77178894 5.00642223,5.7822685 5.0223907,5.78224038 L7.97377727,5.77704267 C8.07333426,5.77686734 8.15389901,5.69601832 8.15372368,5.59646133 C8.15369798,5.58186662 8.15189995,5.56732903 8.14836907,5.55316785 L8.01090127,5.00182935 L8.01090127,5.00182935 C7.98681622,4.90522948 8.04560109,4.80739501 8.14220097,4.78330996 C8.14746323,4.78199793 8.15278202,4.78092405 8.15814111,4.78009159 L9.39418748,4.58808888 C9.48557302,4.5738934 9.57287644,4.63115689 9.59626262,4.72063266 L9.83623778,5.6388008 C9.85699977,5.71823819 9.9288186,5.77360946 10.0109243,5.77348155 L13.0267536,5.76878328 L13.0267536,5.76878328 C13.1246232,5.76860581 13.2044177,5.84645562 13.2073384,5.94367472 L13.2073384,5.95054756 L13.2039763,6.35447531 C13.2012743,6.67908293 12.9376751,6.94097158 12.6130568,6.94156021 L9.32383038,6.94755734 C9.22440173,6.94773863 9.14389489,7.02839239 9.14389489,7.1278212 L9.14389489,7.6621715 C9.14389489,7.76172864 9.2246019,7.84243566 9.32415905,7.84243566 C9.32427065,7.84243566 9.32438225,7.84243555 9.32449386,7.84243535 L12.8284532,7.83592736 L12.8284532,7.83592736 C12.9263227,7.83574622 13.0061201,7.91359302 13.0089721,8.01081202 L13.00905,8.01677611 L13.0056759,8.42161252 C13.0029684,8.74622525 12.73937,9.00811861 12.4147466,9.00871947 L9.32382425,9.01446008 C9.224398,9.01464474 9.14389489,9.09529751 9.14389489,9.19472393 L9.14389489,9.6211559 C9.14389489,9.72071304 9.2246019,9.80142006 9.32415905,9.80142006 C9.32427075,9.80142006 9.32438245,9.80141995 9.32449415,9.80141974 L12.8284532,9.79490608 L12.8284532,9.79490608 C12.9263227,9.79472494 13.0061201,9.87257174 13.0089721,9.96979074 L13.00905,9.97575483 L13.0056759,10.3805912 C13.0029684,10.705204 12.73937,10.9670973 12.4147466,10.9676982 L9.32382392,10.9734444 C9.2243978,10.9736293 9.14389489,11.054282 9.14389489,11.1537083 L9.14389489,11.5987439 C9.14389489,11.698301 9.2246019,11.779008 9.32415905,11.779008 C9.32426474,11.779008 9.32437043,11.7790079 9.32447612,11.7790078 L13.3692568,11.7718932 L13.3692568,11.7718932 C13.4671264,11.7717217 13.5469161,11.8495764 13.5498304,11.9467957 L13.5498304,11.9536673 L13.5464463,12.3575964 C13.5437267,12.6822033 13.2801125,12.9440766 12.9554946,12.9446453 L3.91693732,12.9598393 L3.91694017,13.1502704 C3.91694017,13.2498275 3.83623316,13.3305345 3.73667601,13.3305345 L2.40272124,13.3305345 C2.30316409,13.3305345 2.22245708,13.2498275 2.22245708,13.1502704 L2.22249683,6.6164339 C2.22331731,6.59653935 2.20788275,6.57972079 2.18798963,6.57886716 C2.18389749,6.57869156 2.17980535,6.57921457 2.17573462,6.57990977 C2.06181268,6.60835889 1.97428677,6.63009399 1.91315691,6.64511509 L1.78607827,6.67619641 C1.63738386,6.71239595 1.08387389,6.82797136 0.931507291,6.85467776 C0.82992956,6.87248202 0.756205632,6.88504142 0.710335509,6.89235596 C0.614999669,6.91448203 0.519779879,6.85650855 0.495203145,6.76240408 L0.493925324,6.75719388 L0.251612335,5.70310165 C0.229328592,5.60622025 0.289673712,5.50958063 0.386507162,5.48708944 C0.417018377,5.47834279 0.473089172,5.46682136 0.554719547,5.45252515 C0.677165109,5.43108083 2.17962831,5.09458985 2.75112616,4.94044683 L2.868973,4.90850572 L2.92760083,4.89249809 L3.04426526,4.86040872 L3.16014131,4.82822062 L3.20640998,4.8152788 L3.29856654,4.78934752 C3.31388366,4.78502036 3.32917962,4.78069054 3.34445442,4.77635809 L3.43584937,4.75033164 C3.45103955,4.74598862 3.46620856,4.74164295 3.48135642,4.73729464 L3.57198965,4.71117312 C3.58705287,4.70681425 3.60209493,4.70245275 3.61711582,4.6980886 L3.70698725,4.67187209 L3.79635074,4.64559231 C3.81120232,4.64120708 3.82603274,4.63681921 3.84084199,4.6324287 L3.92944351,4.60605409 C3.95889268,4.59725202 3.98825717,4.58843943 4.01753698,4.57961631 L4.10512237,4.5531154 L4.19219963,4.52655141 C4.2211407,4.51768623 4.24999706,4.50881055 4.27876873,4.49992437 L4.3648296,4.47323432 C4.37913073,4.46878074 4.39341067,4.46432452 4.40766944,4.45986569 L4.49296791,4.43308122 C4.53549007,4.41967326 4.5778216,4.40624171 4.61996249,4.3927866 L4.70399006,4.36584496 L4.7875092,4.33884052 C4.80138668,4.33433455 4.81524298,4.32982597 4.82907809,4.32531477 L4.91183449,4.29821622 L4.99408235,4.27105497 C5.00774794,4.26652288 5.02139234,4.26198817 5.03501556,4.25745085 L5.11650051,4.23019565 C5.1841927,4.20745689 5.25135505,4.18465294 5.31798743,4.1617839 L5.3976919,4.13430982 L5.47688756,4.10677329 C5.5032013,4.09758404 5.52943024,4.08838439 5.55557436,4.07917436 L5.63375227,4.05151306 L5.71142124,4.02378945 C5.72432365,4.01916366 5.73720485,4.01453527 5.75006485,4.00990429 L5.82697032,3.98208727 C5.85252064,3.97280457 5.87798612,3.96351149 5.90336674,3.95420804 L6.17428079,3.82656094 C6.23741987,3.79681157 6.27771136,3.73328715 6.27771108,3.66349053 L6.27769723,0.180264159 L6.27769723,0.180264159 C6.27769723,0.0807070129 6.35840424,0 6.45796139,0 L7.68375767,0 Z M7.35898101,10.9770525 L4.09690277,10.9824579 C3.9974624,10.9826227 3.91693732,11.0632813 3.91693732,11.1627218 L3.91693732,11.6072689 C3.91693732,11.706826 3.99764433,11.7875331 4.09720148,11.7875331 C4.09729566,11.7875331 4.09738985,11.787533 4.09748404,11.7875328 L7.35956228,11.7824196 C7.45900897,11.7822638 7.53954388,11.7016025 7.53954388,11.6021557 L7.53954388,11.1573164 C7.53954388,11.0577593 7.45883686,10.9770523 7.35927972,10.9770523 C7.35918015,10.9770523 7.35908058,10.9770523 7.35898101,10.9770525 Z M7.35898101,9.01806781 L4.09690277,9.0234732 C3.9974624,9.02363798 3.91693732,9.1042966 3.91693732,9.20373711 L3.91693732,9.63015149 C3.91693732,9.72970863 3.99764433,9.81041564 4.09720148,9.81041564 C4.09730105,9.81041564 4.09740061,9.81041556 4.09750018,9.8104154 L7.35957842,9.80501001 C7.4590188,9.80484523 7.53954388,9.72418661 7.53954388,9.6247461 L7.53954388,9.19833173 C7.53954388,9.09877458 7.45883686,9.01806757 7.35927972,9.01806757 C7.35918015,9.01806757 7.35908058,9.01806765 7.35898101,9.01806781 Z M7.3589864,6.95108147 L4.09690816,6.95638946 C3.99746567,6.95655127 3.91693732,7.03721076 3.91693732,7.13665338 L3.91693732,7.67118482 C3.91693732,7.77074197 3.99764433,7.85144898 4.09720148,7.85144898 C4.09730105,7.85144898 4.09740061,7.8514489 4.09750018,7.85144873 L7.35957842,7.84604334 C7.4590188,7.84587857 7.53954388,7.76521995 7.53954388,7.66577943 L7.53954388,7.13134539 C7.53954388,7.03178824 7.45883686,6.95108123 7.35927972,6.95108123 C7.35918194,6.95108123 7.35908417,6.95108131 7.3589864,6.95108147 Z M4.25357713,0.581847171 L4.25834953,0.585208282 L5.02170217,1.13818237 C5.10309714,1.19839153 5.12139831,1.31222675 5.06390032,1.39476649 L5.06074749,1.39915784 L5.04289747,1.42308074 C4.45556907,2.20349019 2.97419479,3.12263176 1.92865403,3.44982009 L1.89355145,3.46066984 C1.88766638,3.46246144 1.88172188,3.46405167 1.87572834,3.46543778 C1.7320981,3.49865457 1.58873184,3.41072018 1.55270886,3.26848897 L1.55135991,3.26292017 L1.34162978,2.35604189 C1.32213769,2.2717576 1.37220619,2.18700526 1.45543324,2.16340355 L1.48458058,2.15507424 L1.52017409,2.14469766 L1.5520309,2.13515442 L1.57347129,2.12854386 L1.59280978,2.12240206 L1.60453439,2.11856794 C2.34401197,1.87355713 3.53739176,1.15214693 3.95105507,0.640970085 L3.96350037,0.625467167 L3.96719703,0.620949688 C4.03836825,0.536304482 4.16231916,0.519380093 4.25357713,0.581847171 Z" id="形状"></path>
                </g>
            </g>
            <g id="5.品牌LOGO/APP应用图形/外网" transform="translate(0.000000, 0.000000)">
                <mask id="mask-3" fill="white">
                    <use xlink:href="#path-2"></use>
                </mask>
                <use id="蒙版" fill="url(#linearGradient-1)" xlink:href="#path-2"></use>
                <g id="编组" mask="url(#mask-3)">
                    <g transform="translate(3.771374, 5.460000)">
                        <g id="路径" fill="none">
                            <use fill="#E5FBEF" xlink:href="#path-5"></use>
                            <use fill-opacity="0.3" fill="url(#radialGradient-4)" xlink:href="#path-5"></use>
                        </g>
                        <path d="M7.23561653,6.48906312 C4.53483079,9.51701725 1.32045312,13.2011384 0.10032379,14.5850572 C-0.1347196,14.8516526 0.0930916864,15.1033984 0.275159777,15.1345827 C9.37810935,16.6937185 12.2683528,12.4199854 12.9121552,10.466332 C13.7930018,7.79335527 12.5484103,6.48906312 11.8440589,6.06373002 C9.45564414,4.62145002 7.68354875,5.98686918 7.23561653,6.48906312 Z" id="Fill-12-Copy" fill="#FAFFFC"></path>
                    </g>
                </g>
            </g>
        </g>
    </g>
</svg>