<?xml version="1.0" standalone="no"?>
<!DOCTYPE svg PUBLIC "-//W3C//DTD SVG 1.1//EN" "http://www.w3.org/Graphics/SVG/1.1/DTD/svg11.dtd" >
<!--
2013-9-30: Created.
-->
<svg>
<metadata>
Created by iconfont
</metadata>
<defs>

<font id="iconfont" horiz-adv-x="1024" >
  <font-face
    font-family="iconfont"
    font-weight="500"
    font-stretch="normal"
    units-per-em="1024"
    ascent="896"
    descent="-128"
  />
    <missing-glyph />
    
    <glyph glyph-name="pick-down" unicode="&#58902;" d="M534.6816 33.843200000000024a35.1744 35.1744 0 0 0-47.616 2.1504l-324.7104 335.104a30.4128 30.4128 0 0 0 2.2528 44.79999999 35.1744 35.1744 0 0 0 47.616-2.09919999l254.976-263.2192 0 558.2336a33.5872 33.5872 0 1 0 67.2256 0L534.4256 127.48800000000006l277.3504 286.3104a35.2256 35.2256 0 0 0 43.264 5.2736l4.352-3.17440001a30.4128 30.4128 0 0 0 2.2528-44.79999999L537.088 36.19839999999999l-0.1536-0.15359999a28.0576 28.0576 0 0 0-2.304-2.20160001z"  horiz-adv-x="1024" />

    
    <glyph glyph-name="nail" unicode="&#58901;" d="M690.176 453.347556l236.259556-105.927112-218.965334-126.407111 151.722667-262.769777-163.441778 80.782222-75.832889 131.413333-219.022222-126.407111 30.264889 250.993778-176.924445 306.631111-87.608888-50.631111-25.315556 43.804444L579.242667 847.644444l25.315555-43.804444-87.608889-50.517333z"  horiz-adv-x="1024" />

    
    <glyph glyph-name="collect" unicode="&#58900;" d="M975.870145 616.90582a36.351855 36.351855 0 0 1-1.894393 4.966381 37.836649 37.836649 0 0 1-9.267163 11.059155c-0.409598 0.358399-0.614398 0.921596-1.023996 1.279995h-0.204799a37.939048 37.939048 0 0 1-13.926344 6.502374L714.239191 696.214303a38.195047 38.195047 0 0 1-17.51033-74.239703l96.460414-22.732709-303.614785-91.033236-303.819585 91.084436 96.255615 22.732709a38.195047 38.195047 0 1 1-17.663929 74.239703L29.49313 640.7137250000001a37.683049 37.683049 0 0 1-13.926344-6.451174l-0.1536-0.1024c-0.255999-0.204799-0.307199-0.511998-0.511998-0.665597a37.785449 37.785449 0 0 1-9.83036-11.724753 36.351855 36.351855 0 0 1-1.843193-4.863981 36.915052 36.915052 0 0 1-2.55999-10.751957c0-0.870397-0.614398-1.689593-0.614397-2.662389v-553.981784c0-16.895932 11.110356-31.743873 27.238291-36.556654l451.223795-135.269859c7.167971-2.099192 14.847941-2.099192 22.015912 0l259.89016 78.079688a38.195047 38.195047 0 0 1 26.214295 27.801489c3.071988 13.311947-1.075196 17.40793-11.007956 26.726293a38.195047 38.195047 0 0 1-37.222251 8.755165l-210.687157-63.282947V455.216867l382.052872 112.383551v-391.473635c0-21.094316 17.100732-38.195047 38.195047-38.195047s30.975876 17.100732 30.975876 38.195047V603.542674c0 1.023996-0.511998 1.843193-0.665597 2.815989a35.07186 35.07186 0 0 1-2.40639 10.547157z m-909.513162-49.663801l385.022459-112.281151v-503.754785l-384.97126 112.383551V567.293219z m874.492502-470.628517a38.195047 38.195047 0 0 1-38.246247-38.195048v-3.942384a36.556654 36.556654 0 0 1 38.195047-36.198255 39.93584 39.93584 0 0 1 38.195047 40.140639 38.195047 38.195047 0 0 1-38.195047 38.195048zM486.400102 895.995904a38.399846 38.399846 0 0 0 38.399847-38.399846v-147.916209a139.263443 139.263443 0 0 1 46.950212 26.521494l13.823945 11.827153 4.198383 3.020788a28.262287 28.262287 0 0 0 32.614269-45.875017l-50.585397-43.315026a139.570642 139.570642 0 0 0-181.656874 0l-50.585397 43.315026-3.583986 3.635186a28.262287 28.262287 0 0 0 0.511998 36.198255l3.635186 3.583986a28.262287 28.262287 0 0 0 36.198255-0.511998l13.823944-11.827153c17.203131-14.745541 37.068652-24.627101 57.855769-29.695881V857.596058A38.399846 38.399846 0 0 0 486.400102 895.995904z"  horiz-adv-x="1024" />

    
    <glyph glyph-name="pick-up" unicode="&#58899;" d="M489.3184 734.1568a35.1744 35.1744 0 0 0 47.616-2.1504l324.7104-335.104a30.4128 30.4128 0 0 0-2.2528-44.8 35.1744 35.1744 0 0 0-47.616 2.0992l-254.976 263.2192v-558.2336a33.5872 33.5872 0 1 0-67.2256 0V640.512l-277.3504-286.3104a35.2256 35.2256 0 0 0-43.264-5.2736l-4.352 3.1744a30.4128 30.4128 0 0 0-2.2528 44.8L486.912 731.8016l0.1536 0.1536a28.0576 28.0576 0 0 0 2.304 2.2016z"  horiz-adv-x="1024" />

    
    <glyph glyph-name="question" unicode="&#58898;" d="M511.8976 895.5904c282.4704 0 511.488-228.9664 511.488-511.488 0-282.4704-229.0176-511.488-511.488-511.488-282.5216 0-511.488 229.0176-511.488 511.488 0 282.5216 228.9664 511.488 511.488 511.488z m0-50.688a460.8 460.8 0 1 1 0.1024-921.6 460.8 460.8 0 0 1-0.1024 921.6z m0-666.2144a45.7216 45.7216 0 1 0 0-91.2384 45.7216 45.7216 0 0 0 0 91.136v0.1024z m0 474.88c47.9744 0 93.0816-16.384 127.488-46.4384 35.584-31.232 55.1936-73.1648 55.0912-117.9648 0-65.9968-43.52-125.44-110.8992-151.296-21.1456-8.192-35.1232-28.4672-35.2768-51.1488v-25.856c0-5.12-4.096-9.216-9.216-9.216H484.352a9.216 9.216 0 0 0-9.216 9.216v24.576a127.5904 127.5904 0 0 0 82.2784 120.6784c38.912 15.0016 64 47.5648 64 83.0464 0 50.3296-49.0496 91.3408-109.568 91.3408-60.3136 0-109.5168-40.96-109.5168-91.3408v-8.704c0-5.12-4.096-9.216-9.216-9.216H338.432a9.216 9.216 0 0 0-9.216 9.216v8.704c0 44.8 19.6608 86.7328 55.296 117.9648a193.024 193.024 0 0 0 127.4368 46.4384z"  horiz-adv-x="1024" />

    
    <glyph glyph-name="menu" unicode="&#58897;" d="M366.1824 412.672H168.3456A117.248 117.248 0 0 0 51.2 529.8176000000001V727.6544A117.248 117.248 0 0 0 168.3456 844.8h197.8368A117.248 117.248 0 0 0 483.328 727.6544v-197.8368A117.248 117.248 0 0 0 366.1824 412.672zM168.3456 783.5136c-30.8224 0-55.8592-25.088-55.8592-55.8592v-197.8368c0-30.8224 25.088-55.8592 55.8592-55.8592h197.8368c30.8224 0 55.8592 25.088 55.8592 55.808V727.7056c0 30.8224-25.088 55.8592-55.808 55.8592H168.2944zM853.6576 412.672H655.872a117.248 117.248 0 0 0-117.1456 117.1456V727.6544A117.248 117.248 0 0 0 655.872 844.8h197.8368a117.248 117.248 0 0 0 117.1456-117.1456v-197.8368a117.248 117.248 0 0 0-117.1456-117.1456zM655.872 783.5136c-30.7712 0-55.8592-25.088-55.8592-55.8592v-197.8368c0-30.8224 25.088-55.8592 55.8592-55.8592h197.8368c30.8224 0 55.9104 25.088 55.9104 55.808V727.7056c0 30.8224-25.088 55.8592-55.9104 55.8592H655.872zM366.1824-74.39359999999999H168.3456A117.248 117.248 0 0 0 51.2 42.75199999999995V240.64a117.248 117.248 0 0 0 117.1456 117.1456h197.8368A117.248 117.248 0 0 0 483.328 240.64v-197.888a117.248 117.248 0 0 0-117.1456-117.1456z m-197.8368 370.8928c-30.8224 0-55.8592-25.088-55.8592-55.8592v-197.888c0-30.7712 25.088-55.8592 55.8592-55.8592h197.8368c30.8224 0 55.8592 25.088 55.8592 55.8592V240.64c0 30.7712-25.088 55.808-55.808 55.808H168.2944zM853.6576-74.39359999999999H655.872a117.248 117.248 0 0 0-117.1456 117.1456V240.64a117.248 117.248 0 0 0 117.1456 117.1456h197.8368a117.248 117.248 0 0 0 117.1456-117.1456v-197.888a117.248 117.248 0 0 0-117.1456-117.1456z m-197.8368 370.8928c-30.7712 0-55.8592-25.088-55.8592-55.9104v-197.8368c0-30.7712 25.088-55.8592 55.8592-55.8592h197.8368c30.8224 0 55.9104 25.088 55.9104 55.8592V240.64c0 30.7712-25.088 55.808-55.9104 55.808H655.872z"  horiz-adv-x="1024" />

    
    <glyph glyph-name="fans" unicode="&#58896;" d="M509.0304 895.744a295.3728 295.3728 0 0 0 0-590.7456 332.288 332.288 0 0 1-332.288-332.288 36.9664 36.9664 0 0 0-73.8304 0 406.2208 406.2208 0 0 0 251.904 375.808A295.3216 295.3216 0 0 0 509.0304 895.744z m0-73.8304a221.5424 221.5424 0 1 1 0-443.0336 221.5424 221.5424 0 0 1 0 443.0336zM835.1744 268.1344c30.1568 0 58.2144-12.6464 79.0528-35.4816 20.0704-21.9136 31.0272-50.7904 31.0272-81.408 0-37.1712-17.408-64.5632-28.9792-82.6368-13.312-20.8384-34.7648-45.312-63.8976-72.8064l-12.9536-11.9296c-16.5888-15.104-33.792-29.5424-51.456-43.264a39.7824 39.7824 0 0 0-42.496-3.4304l-5.376 3.4816c-1.024 0.8192-24.2176 18.688-51.3024 43.264-35.84 32.4096-61.696 60.928-76.9024 84.8384a235.0592 235.0592 0 0 0-18.9952 34.4064 122.1632 122.1632 0 0 0 20.992 129.536c20.1728 22.4768 48.896 35.328 79.104 35.4304 25.088 0 49.664-9.216 69.0688-25.856l2.048-1.6896 2.048 1.6896a106.6496 106.6496 0 0 0 69.0176 25.856z m0.1024-59.136h-0.1024a46.848 46.848 0 0 1-25.3952-7.7312l-5.8368-4.3008-39.8336-33.28-40.448 33.6896a47.616 47.616 0 0 1-30.6688 11.6224 47.36 47.36 0 0 1-35.4816-16.2816c-15.9744-18.3296-19.968-44.2368-10.24-66.56 2.9696-6.9632 6.7584-13.568 14.336-25.6512 11.9808-18.688 34.5088-43.52 66.816-72.8064l16.7936-14.7968 18.8928-15.8208 1.4336 1.024c7.4752 6.144 17.2032 14.3872 26.9824 23.04l7.2704 6.5024c32.256 29.184 54.784 54.0672 66.816 72.8576 14.4384 22.528 19.6096 34.7648 19.6096 50.7904a61.0816 61.0816 0 0 1-15.5136 41.472 47.3088 47.3088 0 0 1-35.4304 16.2304z"  horiz-adv-x="1024" />

    
    <glyph glyph-name="erp-logo" unicode="&#58895;" d="M227.2 25.045333000000028l769.962667-5.973333-52.181334-91.648-3.072-4.778667c-9.941333-13.866667-25.898667-22.186667-43.008-22.186666H328.874667l-5.674667 0.298666a53.162667 53.162667 0 0 0-40.448 26.666667l-55.552 97.621333z m315.306667 367.488l5.973333-0.298666c19.797333-1.962667 37.546667-13.653333 47.317333-31.488l43.221334-78.933334H1146.88l-89.344-156.842666H170.24L17.92 392.490667h524.586667zM638.506667 885.248l4.309333-0.298667a32 32 0 0 0 23.552-16.128l265.386667-475.648h-113.92L543.274667 885.248h95.274666z m-199.253334 0l0.682667-0.170667 0.469333-0.512 274.218667-491.392h-104.618667l-6.101333 0.341334a56.405333 56.405333 0 0 0-43.221333 29.098666L516.138667 503.893333H88.917333L289.706667 856.32l3.285333 5.205333a56.746667 56.746667 0 0 0 46.08 23.722667h100.224z m412.032 0l4.010667-0.298667c7.893333-1.237333 14.890667-5.973333 18.944-13.141333l272.597333-478.634667h-111.829333L760.405333 885.248h90.88z"  horiz-adv-x="1194" />

    
    <glyph glyph-name="emalacca-tuichu" unicode="&#59522;" d="M1024 450.56L828.415 270.33500000000004V387.069H506.88V514.0509999999999h321.535V630.7850000000001L1024 450.56zM690.175 854.015H100.349l314.371-133.12v-630.786h275.455V344.06500000000005h46.08v-296.96H414.72V-128L0 47.10500000000002V896h736.255v-339.97h-46.08V854.014z m0 0"  horiz-adv-x="1024" />

    
    <glyph glyph-name="emalacca-xuanzhong" unicode="&#40553;" d="M512-128c282.77 0 512 229.23 512 512S794.77 896 512 896 0 666.77 0 384s229.23-512 512-512z m-80.916 425.903L714.19 581.01c22.525 22.525 58.957 22.613 81.726-0.156 22.612-22.611 22.612-59.271 0.157-81.726L475.378 178.433c-10.613-10.614-24.313-16.246-38.218-16.853-16.731-1.941-34.13 3.47-46.73 16.07L227.825 340.256c-22.142 22.142-22.236 57.946 0.135 80.318 22.217 22.216 58.475 21.978 80.318 0.135l122.806-122.806z"  horiz-adv-x="1024" />

    
    <glyph glyph-name="shopee" unicode="&#58892;" d="M678.775467 138.695111c-6.030222-48.5376-35.908267-87.472356-82.215823-106.951111a209.851733 209.851733 0 0 0-87.790933-14.859378 286.765511 286.765511 0 0 0-119.944533 30.537956 300.009244 300.009244 0 0 0-48.150756 32.5632c-3.800178 3.140267-4.3008 5.233778-1.706666 8.760889l9.443555 13.698844 10.057956 14.563556c2.594133 3.8912 6.781156 4.255289 10.922666 1.024l0.773689-0.568889 2.321067-1.774934 2.980978-2.275555c39.958756-30.833778 86.471111-48.5376 133.393066-50.289778 65.3312 0.841956 112.275911 29.764267 120.763734 74.114845 9.261511 48.901689-29.741511 91.067733-105.949867 114.642488-23.870578 7.327289-84.127289 31.084089-95.209244 37.523912-52.246756 30.128356-76.617956 69.563733-73.1136 118.328888 5.302044 67.584 69.0176 118.010311 149.617777 118.328889 36.590933-0.068267 72.795022-7.418311 106.496-21.617777 12.242489-5.028978 34.042311-16.770844 41.5744-22.300445 4.323556-3.117511 5.211022-6.7584 2.730667-10.763378-1.365333-2.275556-3.6864-5.916444-8.556089-13.425777v-0.113778l-8.078222-12.583822c-2.525867-3.754667-5.461333-4.164267-10.080711-1.274312a225.826133 225.826133 0 0 1-122.88 37.569423c-56.1152-1.069511-98.144711-33.883022-100.920889-78.688711-0.750933-40.436622 30.082844-69.927822 96.574578-92.433067 135.031467-42.666667 186.709333-92.728889 176.9472-171.736178zM512 836.539733c87.881956 0 159.584711-82.1248 162.929778-184.9344H349.024711c3.322311 102.8096 74.979556 184.9344 162.975289 184.9344z m455.020089-204.299377a19.410489 19.410489 0 0 1-19.478756 19.364977h-211.262577C731.113244 787.342222 632.649956 895.613156 512 895.613156c-120.695467 0-219.158756-108.225422-224.324267-244.007823H76.094578a19.410489 19.410489 0 0 1-19.114667-20.866844H56.888889l30.128355-654.244978c0-1.820444 0.113778-3.640889 0.227556-5.575111l0.091022-1.206044 0.091022-1.365334 0.045512-0.113778c4.619378-45.511111 38.183822-82.215822 83.854222-83.876977l0.091022-0.113778H845.824c46.466844 1.274311 84.081778 38.479644 88.041244 84.559644h0.045512v0.659911l0.159288 1.410845 0.136534 3.4816L967.111111 631.239111c-0.091022 0.341333-0.091022 0.659911-0.091022 1.001245z"  horiz-adv-x="1024" />

    
    <glyph glyph-name="right" unicode="&#58931;" d="M649.16116 383.985665L242.644541-3.126496a70.70502 70.70502 0 0 1 0-103.421105 79.562772 79.562772 0 0 1 108.642959 0l460.787098 438.771716a70.70502 70.70502 0 0 1 0 103.472103l-460.787098 438.873712a79.562772 79.562772 0 0 1-108.642959 0 70.70502 70.70502 0 0 1 0-103.421104L649.212158 383.985665z"  horiz-adv-x="1024" />

    
    <glyph glyph-name="iconfontguanyu1x" unicode="&#58907;" d="M512 895.210345C229.66616 895.210345 0.789655 666.33384 0.789655 384 0.789655 101.66616 229.66616-127.210346 512-127.210346 794.33384-127.210346 1023.210346 101.66616 1023.210346 384 1023.210346 666.33384 794.33384 895.210345 512 895.210345L512 895.210345ZM512-73.399094C259.386912-73.399094 54.600905 131.386912 54.600905 384 54.600905 636.613088 259.386912 841.399095 512 841.399095 764.615402 841.399095 969.399094 636.613088 969.399094 384 969.399094 131.386912 764.615402-73.399094 512-73.399094L512-73.399094ZM458.188749 114.941437 565.812406 114.941437 565.812406 491.623658 458.188749 491.623658 458.188749 114.941437 458.188749 114.941437ZM458.188749 545.434906 565.812406 545.434906 565.812406 653.058564 458.188749 653.058564 458.188749 545.434906 458.188749 545.434906Z"  horiz-adv-x="1024" />

    
    <glyph glyph-name="iconstopwatch" unicode="&#59015;" d="M512-54.869333c124.16 3.072 227.626667 45.909333 310.272 128.597333 82.688 82.645333 125.525333 186.069333 128.597333 310.272-3.072 124.16-45.909333 227.626667-128.597333 310.272C739.626667 776.96 636.202667 819.797333 512 822.869333c-124.16-3.072-227.626667-45.909333-310.272-128.597333C119.04 611.626667 76.202667 508.202667 73.130667 384c3.072-124.16 45.909333-227.626667 128.597333-310.272C284.373333-8.96 387.797333-51.797333 512-54.869333zM512-128c-144.768 3.84-265.344 53.888-361.728 150.272C53.888 118.698667 3.84 239.232 0 384c3.84 144.768 53.888 265.344 150.272 361.728C246.698667 842.112 367.232 892.16 512 896c144.768-3.84 265.344-53.888 361.728-150.272C970.112 649.301333 1020.16 528.768 1024 384c-3.84-144.768-53.888-265.344-150.272-361.728C777.301333-74.112 656.768-124.16 512-128z m182.869333 828.586667c-44.970667-199.637333-91.818667-341.333333-140.586666-425.173334-42.666667-59.434667-87.253333-75.776-133.717334-49.109333-46.506667 26.666667-54.485333 73.514667-23.978666 140.544 48.768 83.797333 148.181333 195.072 298.24 333.738667z"  horiz-adv-x="1024" />

    
    <glyph glyph-name="checkmark-outline" unicode="&#59060;" d="M155.402334 21.098078A508.867159 508.867159 0 1 0 874.940497 740.636241 508.867159 508.867159 0 0 0 155.402334 21.098078z m647.787894 71.750269A407.093727 407.093727 0 1 1 227.152603 668.885972a407.093727 407.093727 0 0 1 576.037625-576.037625zM347.245253 416.996728L464.284699 299.448414l218.812879 218.812878 71.241402-72.259136L464.284699 156.965609l-188.280849 188.280849 71.241403 72.259137z"  horiz-adv-x="1024" />

    
    <glyph glyph-name="icomoonheartbroken" unicode="&#61110;" d="M755.182933 832C903.560533 832 1024 711.560533 1024 563.165867c0-292.215467-315.818667-382.839467-511.982933-679.424C304.503467 182.1696 0 261.307733 0 563.165867 0 711.560533 120.4224 832 268.8 832c60.347733 0 115.985067-27.528533 160.802133-67.84L352 640l224-128-128-320 352 384-224 128 61.9008 92.842667c35.413333 21.76 75.2128 35.157333 117.2992 35.157333z"  horiz-adv-x="1024" />

    
    <glyph glyph-name="geren3" unicode="&#58891;" d="M56.888889 873.244444h910.222222c31.288889 0 56.888889-25.6 56.888889-56.888888v-864.711112c0-31.288889-25.6-56.888889-56.888889-56.888888-8.533333 0-14.222222 2.844444-22.755555 5.688888l-409.6 150.755556c-14.222222 5.688889-31.288889 5.688889-45.511112 0L79.644444-99.55555600000002c-28.444444-11.377778-62.577778 0-73.955555 28.444445-2.844444 8.533333-5.688889 14.222222-5.688889 22.755555V816.355556c0 31.288889 25.6 56.888889 56.888889 56.888888zM585.955556 719.644444c-5.688889-11.377778-11.377778-19.911111-17.066667-28.444444 85.333333-93.866667 173.511111-145.066667 258.844444-184.888889-14.222222-14.222222-34.133333-36.977778-42.666666-54.044444-82.488889 42.666667-159.288889 96.711111-250.311111 193.422222-68.266667-82.488889-156.444444-147.911111-250.311112-190.577778-11.377778 17.066667-25.6 39.822222-42.666666 54.044445C361.244444 554.666667 472.177778 640 534.755556 745.2444439999999l51.2-25.6zM503.466667 554.666667h59.733333v-384h-59.733333V554.666667z"  horiz-adv-x="1024" />

    
    <glyph glyph-name="haoyou" unicode="&#58894;" d="M624.488 327.866c173.682-57.697 303.038-212.672 323.38-400.335 0.393-2.205 0.531-4.53 0.65-6.872 0-0.512 0.137-0.906 0.137-1.556A47.123 47.123 0 0 0 901.552-128H47.122A47.123 47.123 0 0 0 0-80.897v1.437c0.138 0.394 0.138 0.63 0.138 0.906 0.118 1.812 0.256 3.486 0.512 5.18 20.026 188.115 149.5 343.504 323.478 401.24-90.76 52.105-151.883 149.993-151.883 262.158 0 166.83 135.243 302.073 302.073 302.073 166.81 0 302.073-135.244 302.073-302.073 0-112.165-61.163-210.053-151.923-262.158z m197.41 60.75c94.6 15.753 163.384 101.63 163.384 200.896 0 106.257-83.1 194.516-187.92 200.601a52.892 52.892 0 0 0-52.931 52.932A52.932 52.932 0 0 0 802.187 895.76c161.73-8.665 290.12-142.47 290.12-306.248 0-97.475-45.547-184.434-116.477-240.595 158.795-72.604 269.187-232.836 269.187-418.806v-1.044a52.912 52.912 0 1 0-105.863 0v1.044h-0.118c0 184.808-135.244 336.455-315.582 352.68a52.971 52.971 0 0 0-7.936 0.611l-2.363 0.158-0.236 0.315a52.892 52.892 0 0 0-42.22 51.848 52.932 52.932 0 0 0 51.2 52.893z"  horiz-adv-x="1260" />

    
    <glyph glyph-name="liaotian" unicode="&#59345;" d="M508.061538 896C224.492308 896 0 691.2 0 443.076923c0-141.784615 78.769231-283.569231 196.923077-366.276923l-15.753846-153.6s3.938462-74.830769 66.953846-43.323077c70.892308 35.446154 173.292308 110.276923 173.292308 110.276923 31.507692-3.938462 63.015385-7.876923 94.523077-7.876923 338.707692 0 508.061538 220.553846 508.061538 468.676923C1024 699.076923 791.630769 896 508.061538 896zM334.769231 384c-31.507692 0-59.076923 23.630769-59.076923 59.076923 0 31.507692 27.569231 59.076923 59.076923 59.076923s59.076923-27.569231 59.076923-59.076923S366.276923 384 334.769231 384z m196.923077 0c-31.507692 0-59.076923 27.569231-59.076923 59.076923s27.569231 59.076923 59.076923 59.076923 59.076923-27.569231 59.076923-59.076923-27.569231-59.076923-59.076923-59.076923z m196.923077 0c-31.507692 0-59.076923 27.569231-59.076923 59.076923s27.569231 59.076923 59.076923 59.076923 59.076923-27.569231 59.076923-59.076923-27.569231-59.076923-59.076923-59.076923z"  horiz-adv-x="1024" />

    
    <glyph glyph-name="shejiao-geren" unicode="&#58913;" d="M672.31 357.3c80.05 50.94 131 141.91 131 243.8 0 160.11-131 291.1-291.1 291.1-160.1 0-291.1-131-291.1-291.1 0-101.88 50.94-192.85 131-243.8C148.32 291.8 2.78 98.95 2.78-126.66h72.77c0 240.16 196.5 436.65 436.65 436.65 240.16 0 436.66-196.49 436.66-436.65h72.77c0 225.61-145.56 418.46-349.32 483.96zM512.2 382.77c-120.07 0-218.32 98.24-218.32 218.32S392.13 819.42 512.2 819.42c120.08 0 218.33-98.25 218.33-218.33 0-120.08-98.25-218.32-218.33-218.32z m0 0"  horiz-adv-x="1024" />

    
    <glyph glyph-name="shejiao-tuandui" unicode="&#58916;" d="M548.57 356.59c65.83 47.54 109.72 124.35 109.72 208.46 0 142.63-113.37 256-256 256s-256.01-113.37-256.01-256c0-87.77 43.89-164.57 109.72-208.46-149.94-58.51-256-204.8-256-376.69v-36.57h73.14V-20.1c0 182.86 146.29 329.15 329.15 329.15S731.43 162.76 731.43-20.09c0-10.97 0-25.6-3.66-36.57h73.14v36.57c3.66 171.88-102.39 318.17-252.34 376.68z m-146.28 25.6c-102.4 0-182.86 80.46-182.86 182.86 0 102.4 80.46 182.86 182.86 182.86 102.4 0 182.86-80.46 182.86-182.86 0-102.4-80.46-182.86-182.86-182.86z m0 0M819.2 393.16c36.57 32.91 58.51 80.46 58.51 135.31 0 91.43-65.83 168.23-153.6 179.2l-10.97-73.14c51.2-7.32 91.43-54.86 91.43-109.71 0-62.17-47.54-109.72-109.72-109.72v-73.14c142.63 0 256.01-113.37 256.01-256 0-10.97 0-25.6-3.66-36.57h73.14c0 10.97 3.66 25.6 3.66 36.57 0 142.63-84.11 259.66-204.8 307.2z m0 0"  horiz-adv-x="1024" />

    
    <glyph glyph-name="chat" unicode="&#58882;" d="M700.821504 353.847296c-16.154624 0-29.247488 13.09184-29.247488 29.247488 0 16.145408 13.092864 29.238272 29.247488 29.238272 16.146432 0 29.249536-13.092864 29.249536-29.238272 0-16.155648-13.103104-29.247488-29.249536-29.247488m-189.17888 0c-16.154624 0-29.24544 13.09184-29.24544 29.247488 0 16.145408 13.090816 29.238272 29.24544 29.238272 16.155648 0 29.247488-13.092864 29.247488-29.238272 0-16.155648-13.09184-29.247488-29.247488-29.247488m-189.179904 0c-16.146432 0-29.247488 13.09184-29.247488 29.247488 0 16.145408 13.101056 29.238272 29.247488 29.238272 16.154624 0 29.249536-13.092864 29.249536-29.238272 0-16.155648-13.094912-29.247488-29.249536-29.247488m483.74784 323.805184C727.455744 756.404224 622.98112 799.744 511.642624 799.744c-111.33952 0-215.812096-43.339776-294.566912-122.09152-152.20736-152.209408-162.78016-395.85792-26.24512-560.2304-13.39392-26.950656-34.88256-58.313728-66.76992-73.99424-15.32928-7.57248-23.957504-23.958528-21.317632-40.871936 2.64192-16.912384 15.68256-30.125056 32.594944-32.765952 7.923712-1.236992 19.201024-2.46784 32.937984-2.46784 36.827136 0 91.087872 8.636416 146.58048 48.61952 61.835264-33.29024 129.48992-49.496064 196.615168-49.496064 107.81184 0 214.573056 41.746432 294.912 122.08128 78.75072 78.75584 122.089472 183.2192 122.089472 294.567936 0 111.337472-43.52 215.812096-122.262528 294.557696M322.46272 453.293056c-38.71232 0-70.207488-31.491072-70.207488-70.198272 0-38.71232 31.495168-70.207488 70.207488-70.207488 38.713344 0 70.209536 31.495168 70.209536 70.207488 0 38.7072-31.496192 70.198272-70.209536 70.198272z m0-40.96c16.155648 0 29.249536-13.09184 29.249536-29.238272 0-16.155648-13.093888-29.247488-29.249536-29.247488-16.146432 0-29.247488 13.09184-29.247488 29.247488 0 16.146432 13.101056 29.238272 29.247488 29.238272z m378.35776 40.96c-38.711296 0-70.20544-31.491072-70.20544-70.198272 0-38.71232 31.494144-70.207488 70.20544-70.207488 38.714368 0 70.21056 31.495168 70.21056 70.207488 0 38.7072-31.496192 70.198272-70.209536 70.198272z m0-40.96c16.147456 0 29.25056-13.09184 29.25056-29.238272 0-16.155648-13.103104-29.247488-29.249536-29.247488-16.154624 0-29.246464 13.09184-29.246464 29.247488 0 16.146432 13.09184 29.238272 29.24544 29.238272z m-189.176832 40.96c-38.71232 0-70.207488-31.491072-70.207488-70.198272 0-38.71232 31.495168-70.207488 70.207488-70.207488 38.71232 0 70.20544 31.495168 70.20544 70.207488 0 38.7072-31.49312 70.198272-70.20544 70.198272z m0-40.96c16.154624 0 29.24544-13.09184 29.24544-29.238272 0-16.155648-13.090816-29.247488-29.24544-29.247488-16.155648 0-29.247488 13.09184-29.247488 29.247488 0 16.146432 13.09184 29.238272 29.247488 29.238272zM313.28256 40.04864l11.283456-6.075392c57.16992-30.779392 121.800704-47.048704 186.9056-47.048704 51.721216 0 102.1952 9.890816 150.024192 29.39904 48.992256 19.981312 92.86656 49.14688 130.405376 86.684672 74.862592 74.86464 116.09088 174.334976 116.09088 280.08448 0 105.63584-41.289728 205.10208-116.26496 280.078336-74.86464 74.862592-174.333952 116.09088-280.08448 116.09088-105.749504 0-205.21984-41.228288-280.085504-116.091904C161.662976 593.27488 120.670208 500.224 116.133888 401.16224c-4.528128-98.86208 27.594752-194.982912 90.44992-270.654464l8.521728-10.257408-5.935104-11.942912c-19.72736-39.69536-46.031872-68.486144-76.07296-83.258368-7.281664-3.597312-11.362304-11.373568-10.119168-19.334144 1.26976-8.132608 7.50592-14.4384 15.519744-15.688704 9.445376-1.475584 19.464192-2.224128 29.77792-2.224128 33.07008 0 83.268608 7.764992 134.60992 44.755968l10.396672 7.491584z m198.189056-94.08512c-67.64544 0-134.838272 15.920128-195.137536 46.1312-56.536064-37.178368-111.232-45.253632-148.058112-45.253632-12.423168 0-24.568832 0.913408-36.098048 2.7136-25.678848 4.009984-45.640704 24.039424-49.66912 49.841152-4.017152 25.739264 9.035776 50.81088 32.48128 62.39232 23.119872 11.369472 40.07424 33.518592 51.411968 53.334016-63.664128 81.78688-95.96928 183.473152-91.185152 287.91296 5.005312 109.29152 50.24256 211.961856 127.377408 289.098752C285.197312 774.733824 394.952704 820.224 511.643648 820.224c116.690944 0 226.446336-45.490176 309.04832-128.089088 82.710528-82.712576 128.26112-192.464896 128.26112-309.040128 0-116.691968-45.489152-226.44736-128.088064-309.04832-41.417728-41.41568-89.832448-73.595904-143.900672-95.648768-52.762624-21.520384-108.442624-32.432128-165.492736-32.432128z"  horiz-adv-x="1024" />

    
    <glyph glyph-name="huabanfuben" unicode="&#58914;" d="M515.072 714.24a332.8 332.8 0 0 0 0-665.6 329.728 329.728 0 0 0-141.312 31.488c-20.736 9.728-44.032 14.336-72.96 14.336-22.272 0-45.568-2.56-68.096-5.376 4.608 42.752 9.216 94.72-15.104 142.592A332.8 332.8 0 0 0 515.072 714.24m0 102.4A435.456 435.456 0 0 1 126.464 185.60000000000002c25.6-50.432-24.064-156.672 18.176-193.536 8.192-7.168 22.784-9.472 40.192-9.472 35.072 0 82.688 9.472 115.968 9.472 12.032 0 22.272-1.28 29.44-4.608A435.2 435.2 0 1 1 515.072 816.64zM637.696 202.75199999999995a51.456 51.456 0 0 0-51.2-51.2h-153.6a51.456 51.456 0 0 0-51.2 51.2 51.456 51.456 0 0 0 51.2 51.2h153.6a51.456 51.456 0 0 0 51.2-51.2z"  horiz-adv-x="1024" />

    
    <glyph glyph-name="favorite-filling" unicode="&#58881;" d="M512 70.144l-176.64-92.672c-72.704-37.888-135.168 7.68-121.344 88.064l33.792 195.584-143.36 138.752c-58.88 57.344-34.816 130.56 46.592 142.336l197.632 28.672 88.064 178.176c36.352 73.216 113.664 73.216 150.016 0l88.064-178.176 197.632-28.672c81.408-11.776 105.472-85.504 46.592-142.336L776.192 261.12l33.792-195.584c13.824-80.896-49.152-125.952-121.344-88.064L512 70.144z"  horiz-adv-x="1024" />

    
    <glyph glyph-name="delete-filling" unicode="&#58885;" d="M828.416 700.4159999999999c-84.48 84.48-189.952 128-316.416 131.584-126.464-3.584-231.936-47.104-316.416-131.584s-128-189.952-131.584-316.416c3.584-126.464 47.104-231.936 131.584-316.416s189.952-128 316.416-131.584c126.464 3.584 231.936 47.104 316.416 131.584s128 189.952 131.584 316.416c-3.584 126.464-47.104 231.936-131.584 316.416z m-94.208-508.416c8.704-8.704 8.704-21.504 0-30.208-8.704-8.704-21.504-8.704-30.208 0l-182.272 182.272-182.272-182.272c-8.704-8.704-21.504-8.704-30.208 0-8.704 8.704-8.704 21.504 0 30.208L491.52 374.27200000000005 309.248 556.544c-8.704 8.704-8.704 21.504 0 30.208 8.704 8.704 21.504 8.704 30.208 0L521.728 404.48l182.272 182.272c8.704 8.704 21.504 8.704 30.208 0 8.704-8.704 8.704-21.504 0-30.208l-182.272-182.272 182.272-182.272z"  horiz-adv-x="1024" />

    
    <glyph glyph-name="elipsis-h" unicode="&#58887;" d="M819.2 316.928c-49.152 0-88.576 39.936-88.576 88.576s39.936 88.576 88.576 88.576c49.152 0 88.576-39.936 88.576-88.576s-39.424-88.576-88.576-88.576z m-614.4 0c-49.152 0-88.576 39.936-88.576 88.576S155.648 494.592 204.8 494.592c49.152 0 88.576-39.936 88.576-88.576 0-49.152-39.424-89.088-88.576-89.088z m307.2 0c-49.152 0-88.576 39.936-88.576 88.576 0 49.152 39.936 88.576 88.576 88.576 49.152 0 88.576-39.936 88.576-88.576s-39.424-88.576-88.576-88.576z"  horiz-adv-x="1024" />

    
    <glyph glyph-name="error" unicode="&#58903;" d="M557.248 384l158.56-158.528a31.808 31.808 0 0 0-0.16-45.12 31.904 31.904 0 0 0-45.12-0.16L512 338.75199999999995l-158.528-158.56a31.808 31.808 0 0 0-45.12 0.16 31.904 31.904 0 0 0-0.16 45.12L466.752 384 308.16 542.528a31.808 31.808 0 0 0 0.16 45.12 31.904 31.904 0 0 0 45.12 0.16L512 429.248l158.528 158.56a31.808 31.808 0 0 0 45.12-0.16 31.904 31.904 0 0 0 0.16-45.12L557.248 384zM512-64C264.576-64 64 136.57600000000002 64 384S264.576 832 512 832s448-200.576 448-448-200.576-448-448-448z m0 64c212.064 0 384 171.936 384 384S724.064 768 512 768 128 596.0640000000001 128 384s171.936-384 384-384z"  horiz-adv-x="1024" />

    
    <glyph glyph-name="close" unicode="&#58904;" d="M556.8 384l272 272c12.8 12.8 12.8 32 0 44.8-12.8 12.8-32 12.8-44.8 0l-272-272-272 272c-12.8 12.8-32 12.8-44.8 0-12.8-12.8-12.8-32 0-44.8l272-272-272-272c-12.8-12.8-12.8-32 0-44.8 12.8-12.8 32-12.8 44.8 0l272 272 272-272c12.8-12.8 32-12.8 44.8 0 12.8 12.8 12.8 32 0 44.8l-272 272z"  horiz-adv-x="1024" />

    
    <glyph glyph-name="arrow-left" unicode="&#58905;" d="M277.92 383.93600000000004c0-8.128 3.072-16.224 9.28-22.4L649.536-0.7999999999999545a31.808 31.808 0 0 1 45.12 0.128 31.904 31.904 0 0 1 0.128 45.12L355.2 384l339.52 339.552a31.808 31.808 0 0 1-0.128 45.12 31.904 31.904 0 0 1-45.12 0.128l-362.24-362.336a31.616 31.616 0 0 1-9.312-22.4l0.032-0.128z"  horiz-adv-x="1056" />

    
    <glyph glyph-name="loading" unicode="&#58906;" d="M840.397 140.288c3.072 0 5.632 2.662 5.632 5.99a5.786 5.786 0 0 1-5.632 5.94c-3.123 0-5.632-2.663-5.632-5.94 0-3.328 2.509-5.99 5.632-5.99z m-118.58-141.517c6.145 0 11.162 5.274 11.162 11.827a11.52 11.52 0 0 1-11.161 11.828 11.52 11.52 0 0 1-11.213-11.828c0-6.553 5.017-11.827 11.213-11.827z m-161.689-75.776a17.306 17.306 0 0 1 16.794 17.767c0 9.83-7.527 17.817-16.794 17.817a17.306 17.306 0 0 1-16.845-17.817c0-9.83 7.527-17.818 16.845-17.818z m-174.592 3.43a23.04 23.04 0 0 1 22.374 23.706 23.04 23.04 0 0 1-22.374 23.706 23.04 23.04 0 0 1-22.374-23.706 23.04 23.04 0 0 1 22.374-23.705z m-154.112 80.897c15.411 0 27.955 13.312 27.955 29.644 0 16.384-12.544 29.645-28.006 29.645-15.463 0-28.007-13.312-28.007-29.645 0-16.384 12.544-29.644 28.007-29.644zM126.31 148.99199999999996c18.535 0 33.588 15.974 33.588 35.635 0 19.661-15.053 35.584-33.588 35.584-18.585 0-33.638-15.923-33.638-35.584 0-19.66 15.053-35.635 33.638-35.635zM90.317 324.403c21.657 0 39.168 18.586 39.168 41.472 0 22.938-17.51 41.472-39.168 41.472-21.607 0-39.168-18.534-39.168-41.472 0-22.886 17.561-41.472 39.168-41.472z m39.782 174.131c24.781 0 44.8 21.248 44.8 47.463s-20.019 47.411-44.8 47.411c-24.73 0-44.8-21.197-44.8-47.411s20.07-47.463 44.8-47.463z m108.135 139.264c27.852 0 50.432 23.91 50.432 53.402 0 29.491-22.528 53.402-50.432 53.402-27.853 0-50.432-23.91-50.432-53.402 0-29.491 22.579-53.402 50.432-53.402z m156.108 77.312c30.925 0 55.962 26.522 55.962 59.29s-25.088 59.29-55.962 59.29c-30.924 0-56.012-26.573-56.012-59.29 0-32.768 25.088-59.29 56.012-59.29z m174.644-0.819c34.048 0 61.644 29.184 61.644 65.28 0 35.994-27.596 65.229-61.644 65.229-33.997 0-61.594-29.184-61.594-65.229s27.597-65.28 61.594-65.28z m160.358-79.616c37.12 0 67.174 31.847 67.174 71.168 0 39.22-30.054 71.117-67.174 71.117-37.069 0-67.174-31.898-67.174-71.168 0-39.27 30.105-71.168 67.174-71.168z m115.61-144.486c40.192 0 72.806 34.509 72.806 77.056 0 42.598-32.614 77.107-72.806 77.107s-72.756-34.509-72.756-77.107c0-42.547 32.564-77.056 72.756-77.056z m49.408-185.447c43.264 0 78.387 37.223 78.387 83.047 0 45.875-35.123 83.046-78.387 83.046-43.316 0-78.439-37.171-78.439-83.046 0-45.824 35.123-83.047 78.439-83.047z"  horiz-adv-x="1024" />

    
    <glyph glyph-name="cry" unicode="&#58910;" d="M512 832c247.136 0 448-200.864 448-448S759.136-64 512-64 64 136.86400000000003 64 384 264.864 832 512 832z m0-832c211.968 0 384 172.032 384 384S723.968 768 512 768 128 595.9680000000001 128 384s172.032-384 384-384z m96 480a64 64 0 1 0 128 0 64 64 0 0 0-128 0z m-320 0a64 64 0 1 0 128 0 64 64 0 0 0-128 0z m407.68-323.2c-17.184-11.2-40.32-5.984-51.52 11.2A155.904 155.904 0 0 1 512 240.38400000000001c-53.76 0-103.04-26.88-132.16-72.448-11.2-17.152-34.336-22.4-51.52-11.2a37.408 37.408 0 0 0-11.2 51.52A229.44 229.44 0 0 0 512 315.072a229.44 229.44 0 0 0 194.88-106.784c11.2-17.152 5.984-40.32-11.2-51.52z"  horiz-adv-x="1024" />

    
    <glyph glyph-name="comment" unicode="&#58911;" d="M272 480a48 48 0 1 1 96 0 48 48 0 1 1-96 0z m192 0a48 48 0 1 1 96 0 48 48 0 1 1-96 0z m192 0a48 48 0 1 1 96 0 48 48 0 1 1-96 0zM896 768H128c-35.2 0-64-28.8-64-64v-448c0-35.2 28.8-64 64-64h160v-192l192 192h416c35.2 0 64 28.8 64 64V704c0 35.2-28.8 64-64 64z m0-480c0-19.2-12.8-32-32-32H448l-96-96v96H160c-19.2 0-32 12.8-32 32V672c0 19.2 12.8 32 32 32h704c19.2 0 32-12.8 32-32v-384z"  horiz-adv-x="1024" />

    
    <glyph glyph-name="smile" unicode="&#58915;" d="M512 832c247.136 0 448-200.864 448-448S759.136-64 512-64 64 136.86400000000003 64 384 264.864 832 512 832z m0-832c211.968 0 384 172.032 384 384S723.968 768 512 768 128 595.9680000000001 128 384s172.032-384 384-384z m96 480a64 64 0 1 0 128 0 64 64 0 0 0-128 0z m-320 0a64 64 0 1 0 128 0 64 64 0 0 0-128 0z m407.68-170.848c17.184-11.2 22.4-34.336 11.2-51.52A229.44 229.44 0 0 0 512 150.84799999999996a229.44 229.44 0 0 0-194.88 106.784 37.408 37.408 0 0 0 11.2 51.52 37.408 37.408 0 0 0 51.52-11.2A155.904 155.904 0 0 1 512 225.53599999999994c53.76 0 103.04 26.88 132.16 72.416 11.2 17.184 34.336 22.4 51.52 11.2z"  horiz-adv-x="1024" />

    


  </font>
</defs>
</svg>
